<svg version="1.1" id="Layer_1" xmlns="http://www.w3.org/2000/svg" xmlns:xlink="http://www.w3.org/1999/xlink" x="0px" y="0px"
	 width="100%" viewBox="0 0 730 475" enable-background="new 0 0 730 475" xml:space="preserve">
<path fill="#FFFFFF" opacity="1.000000" stroke="none" 
	d="
M526.000000,476.000000 
	C350.666656,476.000000 175.833328,476.000000 1.000000,476.000000 
	C1.000000,317.666656 1.000000,159.333328 1.000000,1.000000 
	C244.333328,1.000000 487.666656,1.000000 731.000000,1.000000 
	C731.000000,159.333328 731.000000,317.666656 731.000000,476.000000 
	C662.833313,476.000000 594.666687,476.000000 526.000000,476.000000 
M97.981133,415.182007 
	C97.044998,412.017639 96.768738,408.422363 95.040169,405.775513 
	C91.009239,399.603210 86.279808,393.887024 81.912689,387.463898 
	C81.614304,387.364807 81.315918,387.265717 80.386642,386.891541 
	C78.009201,384.868286 75.631752,382.845032 73.254311,380.821777 
	C73.528732,380.165192 73.803146,379.508606 74.077560,378.852020 
	C75.247581,378.931183 76.713020,378.587738 77.536179,379.163116 
	C80.986069,381.574677 84.130913,384.424408 87.592415,386.817261 
	C98.400490,394.288452 109.301613,401.625092 120.087311,409.536133 
	C120.385696,409.635223 120.684082,409.734314 121.614166,410.109222 
	C124.447395,412.609253 127.215553,415.187958 130.125381,417.595428 
	C141.354691,426.885986 152.096085,436.902802 164.085083,445.087830 
	C171.381088,450.068878 176.808395,457.961151 186.082733,460.043457 
	C188.107559,460.498047 190.169327,461.103516 192.000626,462.051666 
	C201.450500,466.944519 209.245148,464.201385 212.346130,454.094055 
	C217.168686,438.375397 221.396027,422.475159 226.034134,406.698486 
	C228.879135,397.021118 232.019806,387.430664 235.027695,377.801208 
	C235.742752,377.826874 236.457794,377.852539 237.172852,377.878204 
	C241.763733,387.785919 246.542709,397.611633 250.904816,407.619080 
	C259.027100,426.252991 267.029480,444.942383 274.742340,463.747864 
	C275.785156,466.290497 276.719086,467.031311 279.182983,467.029633 
	C335.666290,466.990997 392.149719,467.020203 448.632751,466.891693 
	C450.165710,466.888214 452.312317,465.666046 453.132660,464.359192 
	C464.124176,446.849579 474.771423,429.122772 485.850220,411.669586 
	C491.287628,403.103699 497.335846,395.057159 494.056915,383.908020 
	C491.843048,376.380371 491.733276,368.113770 486.245697,361.789398 
	C480.815918,355.531616 475.413208,349.233185 469.666534,343.272766 
	C464.738373,338.161285 458.990723,333.818970 454.238373,328.564087 
	C448.073151,321.746979 442.787384,314.135956 436.642456,307.298615 
	C432.207794,302.364288 427.166656,297.923370 422.074310,293.645325 
	C416.091980,288.619598 410.394318,282.513123 403.433899,279.567322 
	C392.992065,275.148224 381.567932,273.037903 370.542450,270.015503 
	C365.307709,268.580505 359.421112,268.348267 354.911530,265.717163 
	C348.049530,261.713593 341.283142,256.799103 342.902618,246.742462 
	C343.736420,241.564651 345.704712,239.557831 350.915192,239.943588 
	C354.560852,240.213516 358.257019,240.178543 361.899200,239.886841 
	C362.986633,239.799728 364.329712,238.594177 364.934082,237.543488 
	C367.345642,233.350845 368.856537,228.466293 371.899506,224.845154 
	C379.317139,216.018066 382.275177,206.230392 381.128113,194.853424 
	C380.896667,192.558060 382.308563,190.097015 382.910706,187.902252 
	C382.554169,185.418640 382.186340,182.856293 381.654663,179.152939 
	C383.951843,180.619095 385.108307,181.357193 386.388519,182.174301 
	C387.639282,175.019516 384.167725,155.359238 378.443451,148.493561 
	C373.392609,142.435577 366.670776,136.961304 359.564148,133.609665 
	C347.838867,128.079788 334.881683,127.367256 322.105072,130.100235 
	C309.067230,132.889099 300.942841,142.283142 293.718750,152.695740 
	C282.558258,149.642914 272.211884,150.743057 262.858582,157.995605 
	C254.307541,164.626068 248.653915,172.824066 250.152023,184.026413 
	C251.022812,190.537720 253.415527,196.840530 255.048157,203.256317 
	C256.607880,209.385529 257.459198,215.685394 254.993134,221.654648 
	C248.844223,236.538376 242.405563,251.304291 235.877075,266.026093 
	C235.287048,267.356598 233.327057,268.340118 231.790329,268.929962 
	C229.412598,269.842590 226.637787,269.857758 224.408264,270.993439 
	C218.099014,274.207214 214.363754,279.147583 211.607391,286.097626 
	C207.770828,295.771362 206.113647,305.367584 205.901154,315.593903 
	C205.691040,325.704285 203.394119,335.478668 200.580795,345.262390 
	C197.818619,354.868256 196.121704,364.909302 195.178055,374.874908 
	C194.124542,386.000488 190.849777,396.327332 187.071014,406.872559 
	C185.141479,406.166840 183.485107,405.689240 181.938263,404.974518 
	C171.717819,400.252258 161.569778,395.370239 151.300247,390.758270 
	C143.662628,387.328217 135.857361,384.273468 128.162827,380.967651 
	C116.749260,376.063995 109.172577,366.564178 100.912682,357.463898 
	C100.614296,357.364807 100.315910,357.265717 99.365219,356.874664 
	C98.874199,355.457977 98.383179,354.041260 97.892159,352.624573 
	C98.933517,352.789917 100.294693,352.588959 100.967476,353.176453 
	C109.002296,360.192017 117.029411,367.272583 127.625305,370.125977 
	C131.033737,371.043854 134.740921,370.852295 138.311417,371.168304 
	C137.737854,367.473999 138.310303,362.973541 136.381912,360.232300 
	C129.858414,350.959015 122.448555,342.309204 115.343307,333.378113 
	C116.168221,332.380280 117.105385,331.246643 118.562515,329.926392 
	C118.389153,329.579865 118.215782,329.233337 117.789108,328.264771 
	C113.897079,324.829010 110.005051,321.393219 105.926407,317.437469 
	C105.579880,317.610840 105.233345,317.784210 104.346603,318.137939 
	C103.883781,318.720245 103.420967,319.302551 102.220909,319.986633 
	C100.480591,319.379974 98.740280,318.773315 96.348259,317.865356 
	C92.367393,315.541260 88.469063,313.058411 84.384186,310.934326 
	C79.592941,308.442963 74.738861,306.000549 69.700462,304.096832 
	C68.024323,303.463562 64.942429,303.879456 63.877899,305.057678 
	C62.834351,306.212738 62.901657,309.210571 63.611202,310.934662 
	C65.061821,314.459534 67.270294,317.672485 69.087311,321.536102 
	C69.385696,321.635193 69.684082,321.734283 70.626556,322.142731 
	C75.460571,328.184662 80.294594,334.226562 85.712837,340.998688 
	C83.305481,340.998688 81.736069,341.370941 80.436722,340.936157 
	C73.777222,338.707581 69.740211,342.988892 66.540421,347.273529 
	C63.377934,351.508209 59.313271,356.075958 62.793892,362.496826 
	C63.471130,363.746216 61.695225,366.325348 60.824772,368.980835 
	C59.136486,367.478668 58.462292,366.772400 57.686607,366.204865 
	C48.485546,359.472321 40.149841,351.152069 28.073658,349.618591 
	C26.268522,349.389343 23.241215,349.327881 22.759140,350.237793 
	C21.928139,351.806244 22.046396,354.478058 22.836731,356.193848 
	C25.324614,361.595062 26.972607,367.396759 31.881456,371.610809 
	C36.090527,375.224091 39.438114,379.840881 43.087330,384.536102 
	C43.385731,384.635193 43.684132,384.734283 44.630341,385.149567 
	C42.723743,387.478210 40.817142,389.806885 38.865955,392.190002 
	C40.873501,393.904144 42.903542,395.316040 44.539413,397.091217 
	C50.804016,403.889465 50.756729,403.933044 57.530983,398.366638 
	C66.222359,403.912323 74.656464,409.579865 83.390373,414.739990 
	C87.456589,417.142395 91.930588,419.748230 97.536201,416.912659 
	C97.635246,416.614227 97.734291,416.315826 97.981133,415.182007 
M346.955505,110.896973 
	C345.480286,114.705681 344.005066,118.514397 342.425293,122.593056 
	C358.683472,124.454689 372.087677,129.238251 382.343384,141.597839 
	C390.665070,151.626678 394.461426,162.926895 396.081421,175.512070 
	C397.562012,187.014236 388.751526,196.563873 390.461151,208.016525 
	C390.618927,209.073700 390.297394,210.361023 389.795746,211.333847 
	C383.920746,222.727341 378.287567,234.268814 371.793427,245.302017 
	C370.326355,247.794464 365.928375,249.071732 362.631226,249.833282 
	C359.346313,250.592026 355.749329,249.999603 352.289154,249.999603 
	C351.958405,250.416946 351.627655,250.834305 351.296906,251.251648 
	C352.952545,253.184875 354.236115,256.020203 356.332489,256.884735 
	C363.029663,259.646606 369.871643,262.640320 376.943085,263.791656 
	C392.162598,266.269531 406.484375,270.877716 418.784760,280.116364 
	C427.381287,286.573120 435.448334,293.902344 442.920532,301.644257 
	C451.358307,310.386627 458.814697,320.071472 466.809357,329.249329 
	C469.039093,331.808990 471.702576,333.986176 474.098663,336.406525 
	C481.043884,343.421967 487.954376,350.471771 495.072235,357.705017 
	C495.785492,355.919220 496.332031,354.225861 497.113129,352.648712 
	C501.731873,343.322418 506.163879,333.892456 511.117493,324.745850 
	C518.249573,311.576660 524.713196,297.857422 533.403015,285.768036 
	C543.980408,271.052490 559.275085,264.816895 577.898621,266.882111 
	C586.123413,267.794159 594.849731,268.024231 602.836548,266.254272 
	C612.527649,264.106598 622.100220,260.344055 630.971069,255.807770 
	C647.586792,247.310928 664.863037,240.726212 682.592468,235.148666 
	C698.952271,230.001999 710.938843,219.397202 719.958130,205.136459 
	C724.869690,197.370529 726.595032,189.522049 720.746460,181.260605 
	C718.166260,177.615784 716.048767,173.618851 713.959595,169.656082 
	C709.959656,162.069077 706.144592,154.384842 702.225342,146.755051 
	C699.386108,141.227829 697.098083,135.298981 693.526917,130.288620 
	C683.080994,115.633034 669.925537,103.395760 656.640930,91.404083 
	C648.505981,84.060867 639.192261,78.001549 631.235229,70.489250 
	C622.787170,62.513313 615.371460,53.450375 607.392822,44.967537 
	C604.420105,41.806953 601.606384,38.007717 597.895752,36.122154 
	C586.879333,30.524178 575.677917,25.126402 564.109070,20.836067 
	C556.124268,17.874901 547.220398,14.745558 539.062134,15.468977 
	C523.721130,16.829321 511.275665,24.525902 505.492737,40.039513 
	C503.387695,45.686626 500.668396,51.493290 506.319672,56.803726 
	C508.672333,59.014515 511.061432,61.186543 513.559448,63.492001 
	C510.359741,67.181480 508.714539,70.544655 511.269440,74.659294 
	C514.841858,80.412682 519.596802,81.112953 526.626343,76.899239 
	C529.686523,75.064857 532.629211,73.555206 536.643738,74.843567 
	C540.629028,76.122536 545.220886,77.460953 549.106079,76.653458 
	C555.200684,75.386772 560.925049,72.338799 566.806519,70.045944 
	C573.638855,67.382355 575.647949,65.989876 581.664612,72.348953 
	C587.514893,78.532265 593.750061,84.818764 597.744507,92.183617 
	C604.075928,103.857506 608.550232,116.526962 614.054382,128.664490 
	C619.653076,141.010269 619.166992,155.543503 627.844971,166.765381 
	C627.932251,166.878250 627.616028,167.303177 627.450134,167.665466 
	C616.823914,162.479630 605.546997,159.730820 593.810791,161.137939 
	C582.080078,162.544403 571.447876,166.785141 564.794067,177.553146 
	C560.526489,184.459412 558.986206,184.949524 551.412781,181.774094 
	C535.923218,175.279526 520.331909,169.407867 502.986755,172.981598 
	C491.012604,175.448715 480.104614,180.325897 470.203613,187.394943 
	C467.076202,189.627884 464.502594,191.729095 460.136322,190.112671 
	C453.290771,187.578384 446.046631,186.096603 439.271423,183.411758 
	C437.318634,182.637909 435.246155,179.286957 435.203949,177.079788 
	C435.039795,168.490601 435.606903,159.882690 436.089020,151.292252 
	C436.144958,150.295456 437.226105,149.212540 438.070801,148.426117 
	C445.834259,141.198059 448.906281,132.400711 445.991974,122.163704 
	C443.668396,114.001610 442.505463,105.645279 440.671265,97.442520 
	C438.494720,87.709000 433.733704,78.742714 424.752380,72.936279 
	C414.522705,66.322800 403.480316,62.923626 391.215149,63.995930 
	C379.045685,65.059875 367.980682,68.500069 359.481171,77.986237 
	C351.284027,87.134956 346.609802,97.574112 346.955505,110.896973 
z"/>
<path fill="#21325F" opacity="1.000000" stroke="none" 
	d="
M43.166664,384.013916 
	C39.438114,379.840881 36.090527,375.224091 31.881456,371.610809 
	C26.972607,367.396759 25.324614,361.595062 22.836731,356.193848 
	C22.046396,354.478058 21.928139,351.806244 22.759140,350.237793 
	C23.241215,349.327881 26.268522,349.389343 28.073658,349.618591 
	C40.149841,351.152069 48.485546,359.472321 57.686607,366.204865 
	C58.462292,366.772400 59.136486,367.478668 60.824772,368.980835 
	C61.695225,366.325348 63.471130,363.746216 62.793892,362.496826 
	C59.313271,356.075958 63.377934,351.508209 66.540421,347.273529 
	C69.740211,342.988892 73.777222,338.707581 80.436722,340.936157 
	C81.736069,341.370941 83.305481,340.998688 85.712837,340.998688 
	C80.294594,334.226562 75.460571,328.184662 70.212692,321.811768 
	C69.635216,321.261383 69.424492,321.105774 69.166656,321.013916 
	C67.270294,317.672485 65.061821,314.459534 63.611202,310.934662 
	C62.901657,309.210571 62.834351,306.212738 63.877899,305.057678 
	C64.942429,303.879456 68.024323,303.463562 69.700462,304.096832 
	C74.738861,306.000549 79.592941,308.442963 84.384186,310.934326 
	C88.469063,313.058411 92.367393,315.541260 96.722336,318.359467 
	C98.751884,320.893677 100.233818,323.920135 102.958153,319.884857 
	C103.420967,319.302551 103.883781,318.720245 104.923370,318.061340 
	C105.704430,317.975647 105.908730,317.966553 106.113022,317.957428 
	C110.005051,321.393219 113.897079,324.829010 117.902161,328.882446 
	C118.024338,329.704437 118.033447,329.908722 118.042557,330.113037 
	C117.105385,331.246643 116.168221,332.380280 115.343307,333.378113 
	C122.448555,342.309204 129.858414,350.959015 136.381912,360.232300 
	C138.310303,362.973541 137.737854,367.473999 138.311417,371.168274 
	C134.740921,370.852295 131.033737,371.043854 127.625305,370.125977 
	C117.029411,367.272583 109.002296,360.192017 100.967476,353.176453 
	C100.294693,352.588959 98.933517,352.789917 97.892159,352.624573 
	C98.383179,354.041260 98.874199,355.457977 99.783195,357.196930 
	C100.364784,357.738617 100.575508,357.894226 100.833344,357.986084 
	C109.172577,366.564178 116.749260,376.063995 128.162827,380.967651 
	C135.857361,384.273468 143.662628,387.328217 151.300247,390.758270 
	C161.569778,395.370239 171.717819,400.252258 181.938263,404.974518 
	C183.485107,405.689240 185.141479,406.166840 187.071014,406.872559 
	C190.849777,396.327332 194.124542,386.000488 195.178055,374.874908 
	C196.121704,364.909302 197.818619,354.868256 200.580795,345.262390 
	C203.394119,335.478668 205.691040,325.704285 205.901154,315.593903 
	C206.113647,305.367584 207.770828,295.771362 211.607391,286.097626 
	C214.363754,279.147583 218.099014,274.207214 224.408264,270.993439 
	C226.637787,269.857758 229.412598,269.842590 231.790329,268.929962 
	C233.327057,268.340118 235.287048,267.356598 235.877075,266.026093 
	C242.405563,251.304291 248.844223,236.538376 254.993134,221.654648 
	C257.459198,215.685394 256.607880,209.385529 255.048157,203.256317 
	C253.415527,196.840530 251.022812,190.537720 250.152023,184.026413 
	C248.653915,172.824066 254.307541,164.626068 262.858582,157.995605 
	C272.211884,150.743057 282.558258,149.642914 293.718750,152.695740 
	C300.942841,142.283142 309.067230,132.889099 322.105072,130.100235 
	C334.881683,127.367256 347.838867,128.079788 359.564148,133.609665 
	C366.670776,136.961304 373.392609,142.435577 378.443451,148.493561 
	C384.167725,155.359238 387.639282,175.019516 386.388519,182.174301 
	C385.108307,181.357193 383.951843,180.619095 381.654663,179.152939 
	C382.186340,182.856293 382.554169,185.418640 382.910706,187.902252 
	C382.308563,190.097015 380.896667,192.558060 381.128113,194.853424 
	C382.275177,206.230392 379.317139,216.018066 371.899506,224.845154 
	C368.856537,228.466293 367.345642,233.350845 364.934082,237.543488 
	C364.329712,238.594177 362.986633,239.799728 361.899200,239.886841 
	C358.257019,240.178543 354.560852,240.213516 350.915192,239.943588 
	C345.704712,239.557831 343.736420,241.564651 342.902618,246.742462 
	C341.283142,256.799103 348.049530,261.713593 354.911530,265.717163 
	C359.421112,268.348267 365.307709,268.580505 370.542450,270.015503 
	C381.567932,273.037903 392.992065,275.148224 403.433899,279.567322 
	C410.394318,282.513123 416.091980,288.619598 422.074310,293.645325 
	C427.166656,297.923370 432.207794,302.364288 436.642456,307.298615 
	C442.787384,314.135956 448.073151,321.746979 454.238373,328.564087 
	C458.990723,333.818970 464.738373,338.161285 469.666534,343.272766 
	C475.413208,349.233185 480.815918,355.531616 486.245697,361.789398 
	C491.733276,368.113770 491.843048,376.380371 494.056915,383.908020 
	C497.335846,395.057159 491.287628,403.103699 485.850220,411.669586 
	C474.771423,429.122772 464.124176,446.849579 453.132660,464.359192 
	C452.312317,465.666046 450.165710,466.888214 448.632751,466.891693 
	C392.149719,467.020203 335.666290,466.990997 279.182983,467.029633 
	C276.719086,467.031311 275.785156,466.290497 274.742340,463.747864 
	C267.029480,444.942383 259.027100,426.252991 250.904816,407.619080 
	C246.542709,397.611633 241.763733,387.785919 237.172852,377.878204 
	C236.457794,377.852539 235.742752,377.826874 235.027695,377.801208 
	C232.019806,387.430664 228.879135,397.021118 226.034134,406.698486 
	C221.396027,422.475159 217.168686,438.375397 212.346130,454.094055 
	C209.245148,464.201385 201.450500,466.944519 192.000626,462.051666 
	C190.169327,461.103516 188.107559,460.498047 186.082733,460.043457 
	C176.808395,457.961151 171.381088,450.068878 164.085083,445.087830 
	C152.096085,436.902802 141.354691,426.885986 130.125381,417.595428 
	C127.215553,415.187958 124.447395,412.609253 121.206497,409.795013 
	C120.635216,409.261383 120.424492,409.105774 120.166656,409.013916 
	C109.301613,401.625092 98.400490,394.288452 87.592415,386.817261 
	C84.130913,384.424408 80.986069,381.574677 77.536179,379.163116 
	C76.713020,378.587738 75.247581,378.931183 74.077560,378.852020 
	C73.803146,379.508606 73.528732,380.165192 73.254311,380.821777 
	C75.631752,382.845032 78.009201,384.868286 80.793907,387.205383 
	C81.364784,387.738617 81.575508,387.894226 81.833344,387.986084 
	C86.279808,393.887024 91.009239,399.603210 95.040169,405.775513 
	C96.768738,408.422363 97.044998,412.017639 97.730972,415.691589 
	C97.261375,416.364746 97.105789,416.575500 97.014061,416.833374 
	C91.930588,419.748230 87.456589,417.142395 83.390373,414.739990 
	C74.656464,409.579865 66.222359,403.912323 57.530983,398.366638 
	C50.756729,403.933044 50.804016,403.889465 44.539413,397.091217 
	C42.903542,395.316040 40.873501,393.904144 38.865955,392.190002 
	C40.817142,389.806885 42.723743,387.478210 44.214600,384.815186 
	C43.635262,384.261353 43.424530,384.105713 43.166664,384.013916 
M366.005096,407.692566 
	C366.336914,409.943634 366.663849,412.195404 367.001404,414.445618 
	C368.687103,425.682709 373.816559,435.612061 382.418945,442.431854 
	C393.464874,451.188812 406.942047,455.911285 420.514465,459.682678 
	C424.425110,460.769348 428.516357,461.028839 430.348297,455.442139 
	C431.898895,450.713440 434.399750,446.277100 436.667053,441.806244 
	C443.960358,427.424866 451.300507,413.066833 458.707581,398.743774 
	C461.415710,393.507050 461.494659,388.371033 457.422699,384.078857 
	C453.007294,379.424622 448.170685,375.112335 443.166779,371.087189 
	C435.445465,364.876129 427.367676,359.110413 419.551758,353.013947 
	C413.966827,348.657745 408.696716,343.885956 402.979767,339.720001 
	C401.645081,338.747437 397.972290,338.629242 397.245361,339.567261 
	C393.188934,344.801544 388.779877,350.083588 386.206451,356.084808 
	C379.035645,372.807068 372.707764,389.890839 366.005096,407.692566 
M290.000000,173.543854 
	C290.000000,171.758072 290.000000,169.972305 290.000000,168.186523 
	C289.562195,167.784546 289.124390,167.382584 288.686584,166.980621 
	C285.049683,169.526657 280.703033,171.470108 277.923309,174.743988 
	C272.104828,181.596817 272.807129,189.907730 273.582428,198.448700 
	C274.543854,209.040680 275.179993,219.900650 273.882263,230.388168 
	C272.722595,239.759888 268.743744,248.782776 265.732269,258.887695 
	C269.048645,257.647614 272.671600,257.169983 275.116058,255.217163 
	C282.973206,248.940292 290.528961,242.263306 297.914795,235.431320 
	C300.620087,232.928909 303.507294,229.881683 304.602875,226.525269 
	C307.419952,217.894806 306.281250,209.866730 300.088928,202.343994 
	C293.578094,194.434280 290.713989,184.717484 290.000000,173.543854 
z"/>
<path fill="#F8B10E" opacity="1.000000" stroke="none" 
	d="
M346.974548,110.461800 
	C346.609802,97.574112 351.284027,87.134956 359.481171,77.986237 
	C367.980682,68.500069 379.045685,65.059875 391.215149,63.995930 
	C403.480316,62.923626 414.522705,66.322800 424.752380,72.936279 
	C433.733704,78.742714 438.494720,87.709000 440.671265,97.442520 
	C442.505463,105.645279 443.668396,114.001610 445.991974,122.163704 
	C448.906281,132.400711 445.834259,141.198059 438.070801,148.426117 
	C437.226105,149.212540 436.144958,150.295456 436.089020,151.292252 
	C435.606903,159.882690 435.039795,168.490601 435.203949,177.079788 
	C435.246155,179.286957 437.318634,182.637909 439.271423,183.411758 
	C446.046631,186.096603 453.290771,187.578384 460.136322,190.112671 
	C464.502594,191.729095 467.076202,189.627884 470.203613,187.394943 
	C480.104614,180.325897 491.012604,175.448715 502.986755,172.981598 
	C520.331909,169.407867 535.923218,175.279526 551.412781,181.774094 
	C558.986206,184.949524 560.526489,184.459412 564.794067,177.553146 
	C571.447876,166.785141 582.080078,162.544403 593.810791,161.137939 
	C605.546997,159.730820 616.823914,162.479630 627.450134,167.665466 
	C627.616028,167.303177 627.932251,166.878250 627.844971,166.765381 
	C619.166992,155.543503 619.653076,141.010269 614.054382,128.664490 
	C608.550232,116.526962 604.075928,103.857506 597.744507,92.183617 
	C593.750061,84.818764 587.514893,78.532265 581.664612,72.348953 
	C575.647949,65.989876 573.638855,67.382355 566.806519,70.045944 
	C560.925049,72.338799 555.200684,75.386772 549.106079,76.653458 
	C545.220886,77.460953 540.629028,76.122536 536.643738,74.843567 
	C532.629211,73.555206 529.686523,75.064857 526.626343,76.899239 
	C519.596802,81.112953 514.841858,80.412682 511.269440,74.659294 
	C508.714539,70.544655 510.359741,67.181480 513.559448,63.492001 
	C511.061432,61.186543 508.672333,59.014515 506.319672,56.803726 
	C500.668396,51.493290 503.387695,45.686626 505.492737,40.039513 
	C511.275665,24.525902 523.721130,16.829321 539.062134,15.468977 
	C547.220398,14.745558 556.124268,17.874901 564.109070,20.836067 
	C575.677917,25.126402 586.879333,30.524178 597.895752,36.122154 
	C601.606384,38.007717 604.420105,41.806953 607.392822,44.967537 
	C615.371460,53.450375 622.787170,62.513313 631.235229,70.489250 
	C639.192261,78.001549 648.505981,84.060867 656.640930,91.404083 
	C669.925537,103.395760 683.080994,115.633034 693.526917,130.288620 
	C697.098083,135.298981 699.386108,141.227829 702.225342,146.755051 
	C706.144592,154.384842 709.959656,162.069077 713.959595,169.656082 
	C716.048767,173.618851 718.166260,177.615784 720.746460,181.260605 
	C726.595032,189.522049 724.869690,197.370529 719.958130,205.136459 
	C710.938843,219.397202 698.952271,230.001999 682.592468,235.148666 
	C664.863037,240.726212 647.586792,247.310928 630.971069,255.807770 
	C622.100220,260.344055 612.527649,264.106598 602.836548,266.254272 
	C594.849731,268.024231 586.123413,267.794159 577.898621,266.882111 
	C559.275085,264.816895 543.980408,271.052490 533.403015,285.768036 
	C524.713196,297.857422 518.249573,311.576660 511.117493,324.745850 
	C506.163879,333.892456 501.731873,343.322418 497.113129,352.648712 
	C496.332031,354.225861 495.785492,355.919220 495.072235,357.705017 
	C487.954376,350.471771 481.043884,343.421967 474.098663,336.406525 
	C471.702576,333.986176 469.039093,331.808990 466.809357,329.249329 
	C458.814697,320.071472 451.358307,310.386627 442.920532,301.644257 
	C435.448334,293.902344 427.381287,286.573120 418.784760,280.116364 
	C406.484375,270.877716 392.162598,266.269531 376.943085,263.791656 
	C369.871643,262.640320 363.029663,259.646606 356.332489,256.884735 
	C354.236115,256.020203 352.952545,253.184875 351.296906,251.251648 
	C351.627655,250.834305 351.958405,250.416946 352.289154,249.999603 
	C355.749329,249.999603 359.346313,250.592026 362.631226,249.833282 
	C365.928375,249.071732 370.326355,247.794464 371.793427,245.302017 
	C378.287567,234.268814 383.920746,222.727341 389.795746,211.333847 
	C390.297394,210.361023 390.618927,209.073700 390.461151,208.016525 
	C388.751526,196.563873 397.562012,187.014236 396.081421,175.512070 
	C394.461426,162.926895 390.665070,151.626678 382.343384,141.597839 
	C372.087677,129.238251 358.683472,124.454689 342.425293,122.593056 
	C344.005066,118.514397 345.480286,114.705681 346.974548,110.461800 
z"/>
<path fill="#21325F" opacity="1.000000" stroke="none" 
	d="
M102.589531,319.935730 
	C100.233818,323.920135 98.751884,320.893677 97.048187,318.510101 
	C98.740280,318.773315 100.480591,319.379974 102.589531,319.935730 
z"/>
<path fill="#21325F" opacity="1.000000" stroke="none" 
	d="
M106.019714,317.697449 
	C105.908730,317.966553 105.704430,317.975647 105.193474,317.971161 
	C105.233345,317.784210 105.579880,317.610840 106.019714,317.697449 
z"/>
<path fill="#21325F" opacity="1.000000" stroke="none" 
	d="
M69.126984,321.275024 
	C69.424492,321.105774 69.635216,321.261383 69.890648,321.657104 
	C69.684082,321.734283 69.385696,321.635193 69.126984,321.275024 
z"/>
<path fill="#21325F" opacity="1.000000" stroke="none" 
	d="
M118.302536,330.019714 
	C118.033447,329.908722 118.024338,329.704437 118.028824,329.193481 
	C118.215782,329.233337 118.389153,329.579865 118.302536,330.019714 
z"/>
<path fill="#21325F" opacity="1.000000" stroke="none" 
	d="
M100.873016,357.724976 
	C100.575508,357.894226 100.364784,357.738617 100.109344,357.342896 
	C100.315910,357.265717 100.614296,357.364807 100.873016,357.724976 
z"/>
<path fill="#21325F" opacity="1.000000" stroke="none" 
	d="
M43.126999,384.275024 
	C43.424530,384.105713 43.635262,384.261353 43.890697,384.657074 
	C43.684132,384.734283 43.385731,384.635193 43.126999,384.275024 
z"/>
<path fill="#21325F" opacity="1.000000" stroke="none" 
	d="
M81.873016,387.724976 
	C81.575508,387.894226 81.364784,387.738617 81.109352,387.342896 
	C81.315918,387.265717 81.614304,387.364807 81.873016,387.724976 
z"/>
<path fill="#21325F" opacity="1.000000" stroke="none" 
	d="
M120.126984,409.275024 
	C120.424492,409.105774 120.635216,409.261383 120.890648,409.657104 
	C120.684082,409.734314 120.385696,409.635223 120.126984,409.275024 
z"/>
<path fill="#21325F" opacity="1.000000" stroke="none" 
	d="
M97.275131,416.873016 
	C97.105789,416.575500 97.261375,416.364746 97.657074,416.109253 
	C97.734291,416.315826 97.635246,416.614227 97.275131,416.873016 
z"/>
<path fill="#FFFFFF" opacity="1.000000" stroke="none" 
	d="
M366.026062,407.262207 
	C372.707764,389.890839 379.035645,372.807068 386.206451,356.084808 
	C388.779877,350.083588 393.188934,344.801544 397.245361,339.567261 
	C397.972290,338.629242 401.645081,338.747437 402.979767,339.720001 
	C408.696716,343.885956 413.966827,348.657745 419.551758,353.013947 
	C427.367676,359.110413 435.445465,364.876129 443.166779,371.087189 
	C448.170685,375.112335 453.007294,379.424622 457.422699,384.078857 
	C461.494659,388.371033 461.415710,393.507050 458.707581,398.743774 
	C451.300507,413.066833 443.960358,427.424866 436.667053,441.806244 
	C434.399750,446.277100 431.898895,450.713440 430.348297,455.442139 
	C428.516357,461.028839 424.425110,460.769348 420.514465,459.682678 
	C406.942047,455.911285 393.464874,451.188812 382.418945,442.431854 
	C373.816559,435.612061 368.687103,425.682709 367.001404,414.445618 
	C366.663849,412.195404 366.336914,409.943634 366.026062,407.262207 
z"/>
<path fill="#FFFFFF" opacity="1.000000" stroke="none" 
	d="
M290.000000,174.001801 
	C290.713989,184.717484 293.578094,194.434280 300.088928,202.343994 
	C306.281250,209.866730 307.419952,217.894806 304.602875,226.525269 
	C303.507294,229.881683 300.620087,232.928909 297.914795,235.431320 
	C290.528961,242.263306 282.973206,248.940292 275.116058,255.217163 
	C272.671600,257.169983 269.048645,257.647614 265.732269,258.887695 
	C268.743744,248.782776 272.722595,239.759888 273.882263,230.388168 
	C275.179993,219.900650 274.543854,209.040680 273.582428,198.448700 
	C272.807129,189.907730 272.104828,181.596817 277.923309,174.743988 
	C280.703033,171.470108 285.049683,169.526657 288.686584,166.980621 
	C289.124390,167.382584 289.562195,167.784546 290.000000,168.186523 
	C290.000000,169.972305 290.000000,171.758072 290.000000,174.001801 
z"/>
</svg>